<?xml version="1.0" encoding="UTF-8"?>
<svg width="1200pt" height="1200pt" version="1.1" viewBox="0 0 1200 1200" xmlns="http://www.w3.org/2000/svg">
 <g>
  <path d="m477.42 742.5 334.92-334.92c5.3906-5.625 4.9219-14.531-0.70312-19.922-5.3906-4.9219-13.828-4.9219-19.219 0l-63.984 63.984c-159.14-47.344-331.17-3.75-448.36 113.91-19.219 18.984-19.219 49.922 0 69.141 45.703 45.703 100.78 81.094 161.48 103.83l-54.141 54.141c-5.625 5.3906-6.0938 14.297-0.70312 19.922s14.297 6.0938 19.922 0.70312l0.70312-0.70312zm46.406-142.5c0-42.188 34.219-76.172 76.172-76.172 15.469 0 30.469 4.6875 43.125 13.359l-105.94 105.94c-8.9062-12.656-13.594-27.656-13.359-43.125zm-223.83 14.766c-8.2031-8.2031-8.2031-21.328 0-29.297 105.94-106.41 260.39-148.59 405.7-110.86l-42.422 42.422c-18.047-13.828-40.312-21.328-63.281-21.328-57.656 0-104.3 46.875-104.3 104.3 0 22.969 7.5 45.234 21.328 63.281l-53.203 53.203c-61.875-20.859-117.89-55.547-163.83-101.72z"/>
  <path d="m919.92 565.31c-36.562-36.797-79.219-66.797-126.09-89.062-7.0312-3.2812-15.469-0.23438-18.75 6.7969s-0.23438 15.469 6.7969 18.75c44.062 20.859 84.141 48.984 118.36 83.438 8.2031 8.2031 8.2031 21.328 0 29.297-48.516 48.281-107.81 84.375-172.97 104.77-63.281 19.688-130.08 24.375-195.47 13.828-7.7344-1.1719-15 3.9844-16.172 11.719s3.9844 15 11.719 16.172c143.67 23.672 289.92-23.438 392.81-126.56 18.75-18.984 18.75-49.922-0.23438-69.141z"/>
  <path d="m600 676.17c-3.75 0-7.7344-0.23438-11.484-0.9375-7.7344-0.46875-14.531 5.3906-15 13.125-0.46875 6.7969 4.2188 13.125 10.781 14.766 56.953 8.6719 110.16-30.703 118.83-87.656 0.70312-5.1562 1.1719-10.312 1.1719-15.469 0-4.9219-0.23438-9.8438-1.1719-14.766-1.1719-7.7344-8.2031-12.891-15.938-11.719-7.5 1.1719-12.891 8.2031-11.953 15.703 0.46875 3.5156 0.70312 7.2656 0.70312 10.781 0.23438 42.188-33.75 76.172-75.938 76.172z"/>
 </g>
</svg>
